HIERARCHY
ROOT root
{
	OFFSET 0.000000 0.000000 0.000000
	CHANNELS 6 Xposition Yposition Zposition Zrotation Yrotation Xrotation
	JOINT lhip
	{
		OFFSET 0.058581 -0.082280 -0.017664
		CHANNELS 3 Zrotation Yrotation Xrotation
		JOINT lknee
		{
			OFFSET 0.043451 -0.386469 0.008037
			CHANNELS 3 Zrotation Yrotation Xrotation
			JOINT lankle
			{
				OFFSET -0.014790 -0.426874 -0.037428
				CHANNELS 3 Zrotation Yrotation Xrotation
				JOINT ltoe
				{
					OFFSET 0.041054 -0.060286 0.122042
					CHANNELS 3 Zrotation Yrotation Xrotation
					End Site
					{
						OFFSET 0.000000 0.000000 0.000000
					}
				}
			}
		}
	}
	JOINT rhip
	{
		OFFSET -0.060310 -0.090513 -0.013543
		CHANNELS 3 Zrotation Yrotation Xrotation
		JOINT rknee
		{
			OFFSET -0.043257 -0.383688 -0.004843
			CHANNELS 3 Zrotation Yrotation Xrotation
			JOINT rankle
			{
				OFFSET 0.019056 -0.420046 -0.034562
				CHANNELS 3 Zrotation Yrotation Xrotation
				JOINT rtoe
				{
					OFFSET -0.034840 -0.062106 0.130323
					CHANNELS 3 Zrotation Yrotation Xrotation
					End Site
					{
						OFFSET 0.000000 0.000000 0.000000
					}
				}
			}
		}
	}
	JOINT lowerback
	{
		OFFSET 0.004439 0.124404 -0.038385
		CHANNELS 3 Zrotation Yrotation Xrotation
		JOINT upperback
		{
			OFFSET 0.004488 0.137956 0.026820
			CHANNELS 3 Zrotation Yrotation Xrotation
			JOINT chest
			{
				OFFSET -0.002265 0.056032 0.002855
				CHANNELS 3 Zrotation Yrotation Xrotation
				JOINT lowerneck
				{
					OFFSET -0.013390 0.211636 -0.033468
					CHANNELS 3 Zrotation Yrotation Xrotation
					JOINT upperneck
					{
						OFFSET 0.010113 0.088937 0.050410
						CHANNELS 3 Zrotation Yrotation Xrotation
						End Site
						{
							OFFSET 0.000000 0.000000 0.000000
						}
					}
				}
				JOINT lclavicle
				{
					OFFSET 0.071702 0.114000 -0.018898
					CHANNELS 3 Zrotation Yrotation Xrotation
					JOINT lshoulder
					{
						OFFSET 0.122921 0.045205 -0.019046
						CHANNELS 3 Zrotation Yrotation Xrotation
						JOINT lelbow
						{
							OFFSET 0.255332 -0.015649 -0.022946
							CHANNELS 3 Zrotation Yrotation Xrotation
							JOINT lwrist
							{
								OFFSET 0.265709 0.012698 -0.007375
								CHANNELS 3 Zrotation Yrotation Xrotation
								End Site
								{
									OFFSET 0.000000 0.000000 0.000000
								}
							}
						}
					}
				}
				JOINT rclavicle
				{
					OFFSET -0.082954 0.112472 -0.023707
					CHANNELS 3 Zrotation Yrotation Xrotation
					JOINT rshoulder
					{
						OFFSET -0.113228 0.046853 -0.008472
						CHANNELS 3 Zrotation Yrotation Xrotation
						JOINT relbow
						{
							OFFSET -0.260127 -0.014369 -0.031269
							CHANNELS 3 Zrotation Yrotation Xrotation
							JOINT rwrist
							{
								OFFSET -0.269108 0.006794 -0.006027
								CHANNELS 3 Zrotation Yrotation Xrotation
								End Site
								{
									OFFSET 0.000000 0.000000 0.000000
								}
							}
						}
					}
				}
			}
		}
	}
}
MOTION
Frames: 15
Frame Time: 0.033333
-0.048440 -0.040461 0.727016 -168.371796 -7.524032 104.999193 5.856372 -2.208095 -72.471727 -4.771098 11.641466 84.190556 4.167282 8.344345 -32.213877 0.000000 -0.000000 0.000000 -25.466782 -26.202218 -61.677437 -0.764040 -10.755848 88.325859 8.269806 -4.608172 -32.675291 0.000000 -0.000000 0.000000 14.106281 -2.560973 63.236259 -5.944209 5.070076 -12.200687 -1.249512 2.887958 -0.319297 2.042167 -25.776057 -16.804476 1.547065 -13.391811 -5.916450 -35.818749 -12.524495 5.116548 -40.880046 0.014464 15.523556 -1.555412 -47.333081 2.550774 17.030834 -13.669858 -28.041853 17.380854 35.981662 3.696730 -22.929585 17.682532 -38.559777 1.749211 10.022720 -60.208538 -19.226193 12.549999 -23.813694 
-0.047738 -0.039821 0.729031 -168.318766 -7.550481 104.970034 5.516772 -2.348348 -72.186930 -4.723136 11.153711 83.817729 3.991708 8.600853 -31.900736 0.000000 -0.000000 0.000000 -25.253688 -26.013996 -61.467274 -0.641103 -10.718202 87.847022 8.018261 -5.040133 -32.531318 0.000000 -0.000000 0.000000 14.029186 -2.740035 62.906985 -5.544684 4.721292 -12.305802 -1.255118 2.777590 0.361505 2.151127 -24.775763 -17.896704 1.063360 -13.666146 -4.841521 -35.851245 -12.411846 4.962021 -40.625441 -0.382997 15.095375 -1.652864 -47.038218 1.778705 15.585766 -13.951850 -27.121160 18.524412 35.171830 3.343558 -21.462377 18.873968 -38.048766 -0.287685 13.096245 -60.720462 -16.978937 12.824013 -24.994772 
-0.046290 -0.038173 0.734069 -168.760924 -7.669185 104.232254 4.958429 -2.005169 -70.524839 -4.956124 10.742497 82.962631 3.545853 8.658559 -32.085603 0.000000 -0.000000 0.000000 -25.173953 -25.226508 -60.449450 -0.834822 -10.341232 87.180462 8.012346 -4.902753 -32.659065 0.000000 -0.000000 0.000000 12.866162 -2.712957 63.689603 -5.421053 4.553211 -12.974648 -0.651623 2.348135 1.447900 2.409632 -23.139136 -18.885800 0.721473 -14.162821 -4.005364 -35.589145 -12.238272 4.494373 -40.699607 -0.581690 13.897004 -2.084079 -46.369347 2.956210 14.766018 -14.480576 -27.715438 20.234500 34.378362 2.868893 -19.390420 20.332260 -36.949060 -2.130862 17.065245 -57.932912 -14.616399 13.555282 -27.544019 
-0.044973 -0.036141 0.739974 -168.907567 -7.637731 103.690877 4.822030 -1.904904 -69.031544 -5.302262 10.489461 81.825124 3.283323 8.842782 -32.183345 0.000000 -0.000000 0.000000 -25.076230 -24.557918 -59.270742 -1.048308 -10.245557 86.335642 8.032647 -4.715796 -32.516960 0.000000 -0.000000 0.000000 11.942763 -2.852832 63.926415 -5.020248 4.394793 -13.537811 -0.276327 1.859537 2.803021 2.606895 -21.539977 -19.888462 0.638912 -14.600203 -3.573701 -35.526462 -12.102787 3.964223 -40.768725 -0.809131 12.832481 -2.538099 -45.597259 4.086387 14.783413 -14.608916 -27.633424 21.172271 32.999730 2.171855 -14.929385 22.398724 -33.404518 -6.644833 22.942990 -55.887073 -15.110896 12.570010 -31.279725 
-0.044631 -0.034886 0.745190 -168.599686 -6.888118 103.695514 6.405054 -2.420195 -68.340843 -4.952262 11.182885 80.854723 3.706383 8.477536 -31.920450 0.000000 -0.000000 0.000000 -24.489880 -24.188854 -58.381836 -1.258170 -10.785326 85.416492 8.007780 -4.523954 -32.318751 0.000000 -0.000000 0.000000 12.119322 -3.168255 63.055217 -3.743877 4.452875 -13.044966 -0.762562 1.323228 2.933644 2.322083 -20.405719 -20.143559 0.208288 -14.436524 -2.957676 -35.511649 -11.398109 3.425671 -41.097483 -0.877159 12.559048 -3.148565 -45.284268 5.287856 15.157683 -14.271496 -27.815797 22.429476 31.532534 2.204041 -11.715645 24.115289 -30.107735 -9.574279 28.788189 -56.324189 -19.713182 11.664392 -32.896731 
-0.043530 -0.034164 0.751712 -168.877057 -6.627806 103.994320 4.960371 -1.732309 -67.651361 -4.332344 9.284813 79.927736 3.654229 7.940781 -31.641382 0.000000 -0.000000 0.000000 -23.752781 -23.862378 -57.976571 -1.511612 -10.939239 84.211594 8.002073 -4.375238 -32.190607 0.000000 -0.000000 0.000000 12.239366 -2.648232 62.758141 -3.225971 3.568638 -13.184262 -0.640147 1.099256 2.441142 1.954089 -19.181961 -19.655720 -0.273926 -14.541556 -2.777161 -34.889478 -10.757436 3.631795 -42.270027 -1.389650 13.075363 -2.646167 -44.914578 4.533183 15.448619 -13.521258 -26.883122 22.295893 29.344434 1.801325 -5.670540 25.599831 -24.577256 -14.583491 33.926770 -55.966770 -21.159820 10.585955 -35.812191 
-0.042948 -0.033399 0.758316 -169.241484 -6.366191 104.087076 5.210569 -1.563528 -66.697882 -4.375051 9.234800 78.623129 3.716462 7.843380 -31.339845 0.000000 -0.000000 0.000000 -23.366045 -23.402749 -57.291612 -1.744850 -11.280651 82.934542 7.949585 -4.033755 -31.912768 0.000000 -0.000000 0.000000 12.094149 -2.673325 62.045613 -2.930394 3.364861 -12.875654 -0.948517 0.679063 2.577398 1.793016 -17.806387 -19.662619 -0.565336 -14.430678 -2.334635 -34.580159 -10.287092 3.323171 -42.609199 -1.215227 12.722129 -2.614500 -45.352776 5.665496 14.717330 -13.115585 -27.821649 22.582823 27.897246 1.594749 -0.239344 26.279669 -20.408908 -19.302867 37.516809 -55.105186 -19.382620 10.077459 -37.315139 
-0.042468 -0.032529 0.765224 -169.754471 -6.263556 104.089393 5.001344 -1.356865 -65.629945 -4.282486 8.873848 77.375453 3.511089 7.751538 -31.001907 0.000000 -0.000000 0.000000 -23.075291 -23.001530 -56.521220 -2.071213 -11.467514 81.562650 7.845313 -3.562827 -31.565752 0.000000 -0.000000 0.000000 11.648828 -2.604822 61.813577 -2.794535 3.108532 -13.182384 -0.861950 0.433442 2.989427 1.515456 -16.303751 -19.711758 -0.865165 -14.659614 -2.026324 -34.174521 -9.750841 3.040922 -43.204032 -1.451856 12.381985 -3.051882 -45.390074 6.549866 15.267668 -12.762444 -28.000484 22.676928 26.542498 1.124212 4.258116 27.071115 -16.550088 -22.070265 40.841975 -53.656418 -22.642512 8.063664 -39.128893 
-0.041368 -0.031634 0.772158 -170.325128 -6.638823 103.774090 3.983315 -1.016341 -64.431509 -4.553713 8.143280 76.381266 3.006898 8.027462 -30.888770 0.000000 -0.000000 0.000000 -23.140585 -22.728794 -55.836373 -2.103587 -11.113709 80.593179 7.748348 -3.290116 -31.263076 0.000000 -0.000000 0.000000 10.554543 -2.485282 62.433763 -3.223615 3.064722 -14.328469 -0.096547 0.350390 4.272080 1.278314 -15.334168 -20.250048 -0.855802 -14.903369 -1.843631 -34.024985 -9.748700 3.021325 -43.192810 -2.050067 11.456457 -3.842820 -45.215137 7.260109 15.305350 -13.295129 -27.841698 23.151877 26.033569 0.508182 5.531468 27.540203 -15.892691 -21.308537 42.593329 -51.188563 -24.405561 7.215300 -40.300155 
-0.040636 -0.030541 0.777319 -170.725818 -6.479641 103.617482 4.044432 -0.727933 -63.383620 -4.694666 8.027618 75.335020 2.829945 8.168279 -30.793891 0.000000 -0.000000 0.000000 -22.735245 -22.344999 -55.135902 -1.874554 -11.037795 79.412771 7.628648 -3.367422 -31.151161 0.000000 -0.000000 0.000000 9.869990 -2.392084 62.556372 -3.262300 3.283788 -15.079929 0.335221 0.198053 5.054992 1.007245 -14.425413 -20.214248 -1.093238 -14.634992 -1.894720 -34.298195 -9.191049 2.829785 -43.008789 -2.357521 11.117595 -4.696386 -45.544862 8.640846 15.818476 -13.071271 -28.393015 24.031186 25.381071 0.324500 6.757495 27.966354 -14.401063 -21.149267 44.292700 -49.322476 -25.624008 6.523450 -41.221511 
-0.040362 -0.029347 0.782154 -170.802725 -5.943988 103.098556 4.784423 -0.803119 -61.613104 -4.135907 8.324654 73.772181 2.755308 7.487216 -30.463955 0.000000 -0.000000 0.000000 -22.011350 -22.130776 -53.665656 -1.702809 -10.986864 77.792845 7.943342 -2.726481 -31.431926 0.000000 -0.000000 0.000000 10.411294 -2.152738 63.326152 -2.334618 2.914411 -14.730532 -0.057031 -0.201360 4.068453 0.916642 -13.216597 -20.468753 -2.380190 -14.031517 -1.115593 -33.944079 -8.412467 2.531053 -44.026920 -2.425509 12.152163 -3.743389 -46.255851 8.666155 15.696732 -12.805704 -29.612108 24.715239 24.661325 0.109091 7.643477 29.245927 -13.065785 -20.565404 44.209076 -47.979823 -22.603574 7.777538 -39.387465 
-0.039923 -0.030136 0.785851 -170.780092 -5.857066 103.374752 4.026923 -0.424390 -61.589846 -4.271823 7.420629 73.532301 2.467271 7.577220 -30.523641 0.000000 -0.000000 0.000000 -21.676480 -22.141427 -53.461583 -1.376362 -11.081167 76.941707 7.708514 -3.165417 -31.315401 0.000000 -0.000000 0.000000 10.123584 -2.509168 63.022365 -2.848705 2.995639 -15.215833 0.376246 0.114598 4.427697 0.565607 -13.075143 -20.428769 -2.511766 -13.600984 -0.759295 -33.973879 -8.549347 2.889726 -43.772057 -2.678476 12.067335 -3.765499 -46.465217 7.688364 15.444199 -12.773558 -29.159878 25.188038 24.744587 0.384488 6.388110 29.486566 -14.028333 -17.922636 43.856505 -46.151889 -23.088500 7.551037 -38.534749 
-0.039550 -0.030753 0.787478 -170.867115 -5.826379 103.343156 4.036719 -0.107217 -61.254903 -4.507843 7.456372 73.115745 2.460120 7.421637 -30.615814 0.000000 -0.000000 0.000000 -21.454741 -22.226203 -53.235134 -1.210787 -10.999453 76.498300 7.661516 -3.112769 -31.252292 0.000000 -0.000000 0.000000 10.094244 -2.503517 63.139517 -3.212393 3.131418 -15.368396 0.415875 0.224689 4.451785 0.489086 -13.211643 -20.513050 -2.459217 -13.164560 -0.447458 -33.883709 -8.903665 2.885990 -43.761536 -2.459297 12.106300 -3.888126 -46.639517 8.198772 16.377764 -12.456664 -28.426578 24.782964 25.485075 0.377472 5.512190 29.332427 -14.780911 -16.115397 42.501259 -45.365634 -23.402726 7.606011 -37.923539 
-0.039272 -0.031344 0.788773 -170.707356 -6.138703 103.172306 3.702141 0.035110 -60.911509 -4.751351 7.505202 72.827970 2.516027 7.150112 -30.641198 0.000000 -0.000000 0.000000 -21.666630 -22.592003 -52.851605 -1.199540 -10.913542 76.261568 7.824797 -2.887020 -31.229135 0.000000 -0.000000 0.000000 10.208899 -2.404225 63.724851 -3.564079 3.035236 -15.900018 0.395930 0.283472 4.632082 0.392038 -13.273480 -20.777807 -2.400315 -12.969854 0.007985 -33.467084 -9.184642 2.772387 -44.013311 -2.632801 12.239569 -3.834710 -46.591055 7.923558 16.348919 -12.690567 -28.818246 24.244178 25.973359 0.155502 4.382871 29.439558 -15.709856 -14.359937 40.808686 -44.995824 -23.864497 7.791974 -36.676837 
-0.039012 -0.031882 0.788766 -170.248347 -6.257320 103.005628 3.542604 0.070889 -60.910777 -5.259625 7.413223 72.855744 2.716252 7.115511 -30.586897 0.000000 -0.000000 0.000000 -21.822569 -23.006493 -52.540651 -1.105284 -10.965457 76.344461 7.775650 -2.986552 -31.308535 0.000000 -0.000000 0.000000 10.503268 -2.532984 63.996953 -3.933663 3.079433 -15.920719 0.282657 0.481205 4.546319 0.303443 -13.693114 -20.865601 -2.359429 -12.404474 0.286934 -33.419270 -9.572448 2.700906 -43.911029 -2.557543 12.286547 -3.971974 -46.864075 8.012610 16.595781 -12.594163 -28.601917 23.609225 26.746001 0.223795 2.871962 29.021659 -17.053962 -12.551665 39.006134 -45.011059 -24.363003 8.265047 -35.753740 
